<svg width="25" height="24" viewBox="0 0 25 24" fill="none" xmlns="http://www.w3.org/2000/svg">
<path d="M20.5002 11.2422H22.5002C22.5002 6.39068 18.6272 2.73169 13.4902 2.73169V4.62313C17.5522 4.62313 20.5002 7.40638 20.5002 11.2422Z" fill="#070034"/>
<path d="M13.5003 8.40613C15.6033 8.40613 16.5003 9.25445 16.5003 11.2433H18.5003C18.5003 8.19335 16.7253 6.51469 13.5003 6.51469V8.40613ZM16.9223 13.5537C16.7301 13.3885 16.4776 13.3004 16.2181 13.308C15.9585 13.3156 15.7123 13.4183 15.5313 13.5944L13.1383 15.9218C12.5623 15.8177 11.4043 15.4763 10.2123 14.3519C9.02028 13.2236 8.65928 12.1257 8.55228 11.5847L11.0113 9.32065C11.1977 9.14959 11.3064 8.91665 11.3144 8.67113C11.3225 8.42561 11.2292 8.18677 11.0543 8.00515L7.35928 4.16269C7.18432 3.9805 6.94116 3.86999 6.68143 3.85463C6.42171 3.83927 6.16588 3.92026 5.96828 4.08041L3.79828 5.8404C3.62539 6.00449 3.5222 6.22289 3.50828 6.45417C3.49328 6.6906 3.20728 12.2912 7.79928 16.6358C11.8053 20.4234 16.8233 20.7005 18.2053 20.7005C18.4073 20.7005 18.5313 20.6948 18.5643 20.6929C18.8088 20.68 19.0396 20.582 19.2123 20.4177L21.0723 18.3646C21.2417 18.1778 21.3276 17.9359 21.3115 17.6903C21.2954 17.4447 21.1788 17.2147 20.9863 17.0491L16.9223 13.5537Z" fill="#070034"/>
</svg>
