<svg width="24" height="24" viewBox="0 0 24 24" fill="none" xmlns="http://www.w3.org/2000/svg">
<path d="M20.0002 11.2766H22.0002C22.0002 6.4251 18.1272 2.76611 12.9902 2.76611V4.65755C17.0522 4.65755 20.0002 7.44081 20.0002 11.2766Z" fill="white"/>
<path d="M13.0003 8.44056C15.1033 8.44056 16.0003 9.28887 16.0003 11.2777H18.0003C18.0003 8.22777 16.2253 6.54912 13.0003 6.54912V8.44056ZM16.4223 13.5881C16.2301 13.4229 15.9776 13.3349 15.7181 13.3424C15.4585 13.35 15.2123 13.4527 15.0313 13.6288L12.6383 15.9562C12.0623 15.8522 10.9043 15.5108 9.71228 14.3863C8.52028 13.2581 8.15928 12.1601 8.05228 11.6191L10.5113 9.35507C10.6977 9.18401 10.8064 8.95108 10.8144 8.70555C10.8225 8.46003 10.7292 8.22119 10.5543 8.03957L6.85928 4.19711C6.68432 4.01493 6.44116 3.90442 6.18143 3.88905C5.92171 3.87369 5.66588 3.95468 5.46828 4.11483L3.29828 5.87482C3.12539 6.03892 3.0222 6.25732 3.00828 6.48859C2.99328 6.72502 2.70728 12.3256 7.29928 16.6702C11.3053 20.4578 16.3233 20.7349 17.7053 20.7349C17.9073 20.7349 18.0313 20.7292 18.0643 20.7274C18.3088 20.7144 18.5396 20.6164 18.7123 20.4521L20.5723 18.399C20.7417 18.2122 20.8276 17.9704 20.8115 17.7247C20.7954 17.4791 20.6788 17.2491 20.4863 17.0835L16.4223 13.5881Z" fill="white"/>
</svg>
