<svg width="24" height="24" viewBox="0 0 24 24" fill="none" xmlns="http://www.w3.org/2000/svg">
<rect width="24" height="22.6973" transform="translate(0 0.663818)" fill="#342A2A"/>
<path d="M12 2.08252C9.81276 2.08496 7.71584 2.90776 6.16923 4.37042C4.62261 5.83309 3.75259 7.81619 3.75001 9.88472C3.74739 11.5751 4.33124 13.2196 5.41201 14.566C5.41201 14.566 5.63701 14.8462 5.67376 14.8866L12 21.9427L18.3293 14.8831C18.3623 14.8455 18.588 14.566 18.588 14.566L18.5888 14.5639C19.669 13.2181 20.2526 11.5743 20.25 9.88472C20.2474 7.81619 19.3774 5.83309 17.8308 4.37042C16.2842 2.90776 14.1873 2.08496 12 2.08252ZM12 12.7219C11.4067 12.7219 10.8266 12.5555 10.3333 12.2437C9.83995 11.932 9.45543 11.4889 9.22837 10.9705C9.00131 10.452 8.9419 9.88157 9.05765 9.33121C9.17341 8.78086 9.45913 8.27532 9.87869 7.87854C10.2982 7.48175 10.8328 7.21154 11.4147 7.10207C11.9967 6.9926 12.5999 7.04878 13.1481 7.26352C13.6962 7.47826 14.1648 7.8419 14.4944 8.30847C14.8241 8.77504 15 9.32358 15 9.88472C14.999 10.6369 14.6826 11.358 14.1202 11.8899C13.5578 12.4217 12.7954 12.7209 12 12.7219Z" fill="white"/>
</svg>
