<svg width="25" height="24" viewBox="0 0 25 24" fill="none" xmlns="http://www.w3.org/2000/svg">
<path d="M12.5 2.39673C10.3128 2.39917 8.21584 3.22197 6.66923 4.68463C5.12261 6.1473 4.25259 8.1304 4.25001 10.1989C4.24739 11.8893 4.83124 13.5339 5.91201 14.8802C5.91201 14.8802 6.13701 15.1604 6.17376 15.2008L12.5 22.2569L18.8293 15.1973C18.8623 15.1597 19.088 14.8802 19.088 14.8802L19.0888 14.8781C20.169 13.5323 20.7526 11.8885 20.75 10.1989C20.7474 8.1304 19.8774 6.1473 18.3308 4.68463C16.7842 3.22197 14.6873 2.39917 12.5 2.39673ZM12.5 13.0361C11.9067 13.0361 11.3266 12.8697 10.8333 12.5579C10.34 12.2462 9.95543 11.8031 9.72837 11.2847C9.50131 10.7662 9.4419 10.1958 9.55765 9.64542C9.67341 9.09507 9.95913 8.58953 10.3787 8.19275C10.7982 7.79596 11.3328 7.52575 11.9147 7.41628C12.4967 7.3068 13.0999 7.36299 13.6481 7.57773C14.1962 7.79247 14.6648 8.15611 14.9944 8.62268C15.3241 9.08925 15.5 9.63779 15.5 10.1989C15.499 10.9511 15.1826 11.6722 14.6202 12.2041C14.0578 12.7359 13.2954 13.0351 12.5 13.0361Z" fill="#070034"/>
</svg>
