<svg width="30" height="30" viewBox="0 0 30 30" fill="none" xmlns="http://www.w3.org/2000/svg">
<g clip-path="url(#clip0_17_335)">
<path d="M26.9409 4.99999C26.8273 4.98828 26.7128 4.98828 26.5992 4.99999H3.26589C3.11634 5.00229 2.96778 5.02472 2.82422 5.06666L14.8659 17.0583L26.9409 4.99999Z" fill="black"/>
<path d="M28.1741 6.15845L16.0408 18.2418C15.7285 18.5522 15.3061 18.7264 14.8658 18.7264C14.4254 18.7264 14.003 18.5522 13.6908 18.2418L1.66576 6.25011C1.62879 6.38598 1.60919 6.52599 1.60742 6.66678V23.3334C1.60742 23.7755 1.78302 24.1994 2.09558 24.512C2.40814 24.8245 2.83206 25.0001 3.27409 25.0001H26.6074C27.0494 25.0001 27.4734 24.8245 27.7859 24.512C28.0985 24.1994 28.2741 23.7755 28.2741 23.3334V6.66678C28.2675 6.49316 28.2337 6.32164 28.1741 6.15845ZM4.41576 23.3334H3.25742V22.1418L9.31575 16.1334L10.4908 17.3084L4.41576 23.3334ZM26.5908 23.3334H25.4241L19.3491 17.3084L20.5241 16.1334L26.5824 22.1418L26.5908 23.3334Z" fill="black"/>
</g>
<defs>
<clipPath id="clip0_17_335">
<rect width="30" height="30" fill="white"/>
</clipPath>
</defs>
</svg>
