<svg width="26" height="63" viewBox="0 0 26 63" fill="none" xmlns="http://www.w3.org/2000/svg">
<g clip-path="url(#clip0_193_315)">
<path d="M0.00185652 37.4283C0.00185652 37.1821 0.0996622 36.946 0.273757 36.7719C0.447852 36.5978 0.683975 36.5 0.930182 36.5H1.7434C3.09318 36.5 3.86926 37.3782 4.31857 38.2545C4.62492 38.8542 4.84586 39.5857 5.02967 40.2207H24.1439C24.4308 40.2207 24.7137 40.2873 24.9706 40.4151C25.2274 40.5429 25.4511 40.7285 25.6242 40.9573C25.7972 41.1862 25.9149 41.452 25.968 41.7339C26.021 42.0158 26.008 42.3062 25.93 42.5823L23.1524 52.3759C22.9315 53.1529 22.4632 53.8367 21.8186 54.3235C21.1739 54.8103 20.3881 55.0737 19.5802 55.0736H10.1503C9.33576 55.0738 8.5437 54.8063 7.89619 54.3121C7.24867 53.8179 6.78161 53.1245 6.56698 52.3388L5.37501 47.9664C5.36817 47.9468 5.36198 47.927 5.35644 47.907L3.44223 41.4145L3.25657 40.7888C3.0709 40.1464 2.90752 39.5783 2.66244 39.1011C2.36723 38.5256 2.09616 38.3585 1.74154 38.3585H0.928326C0.682119 38.3585 0.445995 38.2607 0.2719 38.0866C0.0978052 37.9125 0 37.6764 0 37.4302M10.219 62.5C10.9576 62.5 11.666 62.2066 12.1883 61.6843C12.7106 61.162 13.004 60.4537 13.004 59.7151C13.004 58.9765 12.7106 58.2681 12.1883 57.7458C11.666 57.2236 10.9576 56.9302 10.219 56.9302C9.48039 56.9302 8.77202 57.2236 8.24973 57.7458C7.72745 58.2681 7.43403 58.9765 7.43403 59.7151C7.43403 60.4537 7.72745 61.162 8.24973 61.6843C8.77202 62.2066 9.48039 62.5 10.219 62.5ZM19.5023 62.5C20.2409 62.5 20.9493 62.2066 21.4715 61.6843C21.9938 61.162 22.2872 60.4537 22.2872 59.7151C22.2872 58.9765 21.9938 58.2681 21.4715 57.7458C20.9493 57.2236 20.2409 56.9302 19.5023 56.9302C18.7636 56.9302 18.0553 57.2236 17.533 57.7458C17.0107 58.2681 16.7173 58.9765 16.7173 59.7151C16.7173 60.4537 17.0107 61.162 17.533 61.6843C18.0553 62.2066 18.7636 62.5 19.5023 62.5Z" fill="#17096B"/>
</g>
<defs>
<clipPath id="clip0_193_315">
<rect width="26" height="62" fill="white" transform="translate(0 0.5)"/>
</clipPath>
</defs>
</svg>
