<svg width="26" height="26" viewBox="0 0 26 26" fill="none" xmlns="http://www.w3.org/2000/svg">
<path d="M16.5623 15.9C16.4033 15.848 15.3983 15.395 16.0263 13.486H16.0173C17.6543 11.8 18.9053 9.08701 18.9053 6.41601C18.9053 2.30901 16.1743 0.156006 13.0003 0.156006C9.8243 0.156006 7.1083 2.30801 7.1083 6.41601C7.1083 9.09801 8.3523 11.822 9.9993 13.504C10.6413 15.188 9.4933 15.813 9.2533 15.901C5.9293 17.103 2.0293 19.294 2.0293 21.457V22.268C2.0293 25.215 7.7433 25.885 13.0313 25.885C18.3273 25.885 23.9693 25.215 23.9693 22.268V21.457C23.9693 19.229 20.0503 17.055 16.5623 15.9Z" fill="#17096B"/>
</svg>
